<?xml version="1.0" encoding="utf-8"?>
<!-- Generator: Adobe Illustrator 26.1.0, SVG Export Plug-In . SVG Version: 6.00 Build 0)  -->
<svg version="1.1" id="Layer_2_00000035496438576817807570000006301873279836545715_"
	 xmlns="http://www.w3.org/2000/svg" xmlns:xlink="http://www.w3.org/1999/xlink" x="0px" y="0px" viewBox="0 0 221 162"
	 style="enable-background:new 0 0 221 162;" xml:space="preserve">
<style type="text/css">
	.st0{fill:#3AE84B;}
</style>
<g id="Layer_2-2">
	<g>
		<path class="st0" d="M39.5,131.4L5.2,64.1l25.1-32.4l16.2,16.6l21.8,22c4.3,4.1,8.6,7.8,13.2,11.5c2.2,1.5,4.2,2.9,6.7,4l28.6,0.9
			l-5.1-25.4L133,26.1l38.3-11.2l44,21.1c-0.4,6.1-0.5,11.9-0.3,17.9l0.4,17.9c-0.1,14.9-2.3,29-10.2,41.9c-2,3.2-11.4,7.9-15,9.8
			l-13.3,6.3l-44.1,25.2L39.5,131.4L39.5,131.4z M60.1,96.5c-5.8-3.8-13.7-17.3-17.6-23.3c-1.8-2.8-7.3-11.9-10.8-11.2
			c-1.9,4.6-1.8,9.5-0.4,14.2c5.4,18,30,34.6,46.5,42.1c27.5,12.6,59.3,11.7,86-2.5c4.8-2.6,9.1-5.4,13.3-9.1
			c8.6-7.7,15.5-16.9,20.2-27.4c3.3-7.3,5.9-16.7,4.5-24.7l-10.8-10.2c-2.3-0.2-4.4-0.7-6.4-1.8l-6.2-3.4c-2.6-1.4-5.3-2.1-8.3-2.1
			c-9.4,0.1-18.6,1.7-27.3,5.2c-8.6,3.5-17.7,10.5-13.8,20.8c4.3,11.2,18.7,21.1,29.5,25.7c1.8,0.5,3.5,1.6,5.2,1.6l11.6,0.2
			c-19,20.5-46.3,26.9-73.1,22.1C87.2,110.3,72.9,104.9,60.1,96.5L60.1,96.5z"/>
		<path class="st0" d="M140.4,59.3c5.7-6.5,12.1-9.7,20.6-8.6c8.2,1.4,14.6,4.6,23.3,5.8c1.8,5.3,2.7,11.5,0.3,16.8
			c-2.1,2.8-6.3,4.2-9.8,4.8C161.5,80.2,144,73.6,140.4,59.3L140.4,59.3z"/>
	</g>
</g>
</svg>
