<?xml version="1.0" encoding="UTF-8"?>
<svg id="Layer_2" data-name="Layer 2" xmlns="http://www.w3.org/2000/svg" viewBox="0 0 712.69 386.37">
  <defs>
    <style>
      .cls-1 {
        fill: #fff;
      }
    </style>
  </defs>
  <g id="Layer_2-2" data-name="Layer 2">
    <g id="Layer_2-3" data-name="Layer 2">
      <path class="cls-1" d="M294.33.28c11,1.52,19.83,9.91,24.6,19.8,5.8,11.16,6.2,27.27,4.81,32.87s-1.58,5.01-2.05,7.27,2.4.34,6.82,3.15,7.45,5.51,11.05,8.34c5.68,4.03,11.87,13.51,11.11,17.65s9.63-16.37,11.78-20.49c2.67-5.7,5.24-12.19,8.02-17.8,2.79-5.68,5.78-10.41,9.29-13.01,6.4-5.01,16.97-3.18,19.17,4.66,1.64,9.38-7.5,23.77-11.06,32.8-7.08,15.06-12.83,30.75-19.95,46.04-10.76,21.48-1.5,23.63,16.23,33.11,6.83,3.67,13.66,7.7,20.69,10.98,7.4,3.6,16.4,6.32,23.82,1.56,6.2-3.68,11.06-11.56,16.01-18.71,4.47-6.6,8.78-13.32,12.5-20.38,4.29-8.13,7.57-16.44,10.53-24.82,2.1-5.88,4.33-12.2,7.7-17.32,2.89-4.49,6.59-8.76,11.71-10.61,4.33-1.53,9.44-2.07,13.75-.27,9.37,4.98,5.28,17.2,2.09,25.68-6.36,17.28-15.89,33.68-22.86,50.78-2.12,5.27-5,11.08-7,16.06-1.25,3.59-3.22,8.52.11,10.95.72.53,1.67.88,2.59,1.12,4.85,1.29,14.71.29,22.06.33,7.22.05,14.92.02,21.27,3.75,4.63,2.7,7.37,7.16,10,9.71,2.72,3.13,6.69,2.96,10.19,1.09,4.96-2.42,10.76-6.17,15.89-8.92,17.22-9.5,34.24-18.03,52.14-24.98,13.13-5.02,90.6-35.99,97.08-36.07,8.77-.26,11.16,5.89,4.29,11.78-4.79,4.04-11.4,6.9-17.07,9.86-41.32,21.41-80.82,46.15-120.67,69.87-2.69,1.73-5.18,3.52-7.2,5.39-4.46,4.04-6.25,8.72-3.68,13.71,3.99,8.26,19,17.16,29.09,24.44,8.38,6.09,33.57,26.35,36.1,30.86,4.42,8.47-5.42,10.35-11.94,8.97-7.11-1.16-13.97-3.99-20.67-6.58-10.86-4.13-21.71-9.27-31.7-15.79-6.13-3.72-12.1-9.33-18.78-11.77-7.51-2.69-13.24,3.56-19.54,6.63-9.41,5.05-34.1,4.97-42.51-1.66-5.28-3.86-5.01-11.17.28-15.37,4.78-4.14,12.07-5.14,17.8-7.51,3.88-1.54,6.94-4.46,8.27-8.44,2.07-5.89,1.86-14.18-.52-19.62-5.16-11.56-20.41-8.48-32.94-8.53-12.69.55-25.13.73-37.85,1.26-6.89.72-20.66-.86-21.45,4.44-.74,3.23-.67,10.15,3.85,17.04,7.8,11.67,13.49,20.86,21.46,33.23,9.34,14.96,22.19,32.03,19.26,46.02-2.2,8.74-11.2,13.86-18.51,18.54-30.94,18.44-60.65,42.59-94.45,54.4-17.58,4.11-22.94-14.69-10.16-25.13,4.24-3.77,61.24-37.52,73.48-44.94,11.22-6.59,22.66-13.53,15.55-26.7-9.52-15.67-20.63-8.21-33.39.94-14,9.03-26.8,21.04-42.24,27.26-5.82,2.24-12.81,2.79-18-.93-5.86-4.04-7.24-12.02-4-18.29,2.53-5.21,47.45-30.46,60.45-41.18,4.66-3.76,6.38-9.74,4.7-15.5-1.4-5.58-4.78-11.75-8.23-15.17-6.73-6.8-16.36.52-23.02,4.3-10.07,5.87-20.64,11.97-26.85,22.44-19.36,35.34-30.56,75.2-47.05,112.16-8.83,19.03-24.22,18.04-33.81-.34-3.08-5.88-5.1-12.44-6.86-18.84-8.71-33.46-18.8-66.32-24.61-100.68-1.04-4.09-2.04-20.1-8.41-13.15-1.7,1.86-3.72,5.06-5.18,7.61-11.57,19.8-23.42,40.73-35.73,60.62-4.39,7.06-12.68,14.19-21.05,10.63-14.82-6.87,1.3-30.13,6.09-39.84,6.59-11.71,8.78-13.56,17.74-33.47s9.25-19.01-4.23-20.99c-8.24-1.34-21.72-.94-26.28-6.98-4.45-5.34-2.18-13.44,2.72-17.76,2.87-10.14,57.84-4.11,61.42-6.37s-2.09-14.46-5.03-20.19c-2.24-4.08-21.76-51.66-23.96-59.58-4.56-15.58-12.53-35.4-.06-48.71,5.18-4.99,10.74-7.11,17.33-11.45,2.49-1.56,5.12-3.23,7.68-4.82,12.17-7.86,24.87-15.47,36.97-22.7,15.74-9.76,34.28-19.79,52.89-17.78l.15.02ZM292.99,44.73c5.53-8.58.56-16.53-9.2-14.85-6.22.95-9.66,4.53-20.34,10.5-21.8,12.7-41.28,25.05-57.14,36.82-6.8,5.13-4.39,11.98-1.92,18.92,3.77,17.56,15.72,8.4,25.7,2.11,7.33-4.85,15.12-9.23,22.46-14.21,8.1-5.46,35.52-22.95,40.33-39.12l.11-.17ZM293.71,141.19c11.94-7.29,24.09-14.94,30.05-27.85,2.55-5.48,5.02-11.41,3.16-16.97-12.02-23.71-67.71,18.95-94.68,35.3-2.74,1.77-5.7,3.91-7.43,6.34-5.56,8.1,2.79,19.41,6.57,27,6.85,12.19,14.83,8.76,24.83.94,12.19-8.56,25.06-16.32,37.31-24.64l.18-.12ZM335.55,150.96c-4.92-.8-10.58,2.59-15.05,4.96-8.06,4.47-15.38,9.27-23.06,13.91-4.28,2.56-8.86,4.94-13.13,7.43-1.37.8-2.65,1.57-3.69,2.29-1.52,1.14-13.37,5.09-12.01,6.51,1.18,1.33,19.43-.22,24.34,1.26,8.63,2.19,14.16,9.41,8.1,17.13-9.27,10.75-26.16,10.47-39.61,11.14-5.66.19-11.56-.61-14.88.87-4.84,2.17-5.81,1.51-3.57,13,1.67,9.05,20.43,82.54,21.11,87.74.57,3.07.95,10.09,4.08,10.63,3.31-.84,4.79-7.63,6.15-11.49,1.93-6.63,31.5-87.39,34.92-91.63,4.34-5.42,10.58-7.32,17.36-9.42,4.22-1.41,33-17.77,37.51-20.49,4.57-2.77,8.61-5.56,10.02-8.3,3.03-5.34-4.97-10.03-9.77-13.31-4.05-2.64-8.29-5.41-12.02-8.22-4.07-2.91-7.08-5.75-10.04-9.18-1.85-2.05-3.95-4.24-6.64-4.8l-.12-.02ZM21.68,183.22c-10.15.82-18.66-1.01-21.62,17.98s95.94,11.92,115.66,12.27c20.43-.45,20.86-23.83.81-26.52-8.34-1.5-18.2-.62-27.47-.91-10.76-.33-57.23-3.64-67.38-2.82Z"/>
    </g>
  </g>
</svg>