<?xml version="1.0" encoding="UTF-8"?>
<svg id="Layer_2" data-name="Layer 2" xmlns="http://www.w3.org/2000/svg" viewBox="0 0 797 508.96">
  <defs>
    <style>
      .cls-1 {
        fill: #a70252;
      }

      .cls-2 {
        fill: #951c49;
      }

      .cls-3 {
        fill: #9e0f4e;
      }

      .cls-4 {
        fill: #824945;
      }

      .cls-5 {
        fill: #a80053;
      }

      .cls-6 {
        fill: #a10a4f;
      }

      .cls-7 {
        fill: #804140;
      }

      .cls-8 {
        fill: #9e104e;
      }

      .cls-9 {
        fill: #971a4a;
      }

      .cls-10 {
        fill: #2abf14;
      }

      .cls-11 {
        fill: #a70153;
      }

      .cls-12 {
        fill: #a60352;
      }
    </style>
  </defs>
  <g id="Layer_2-2" data-name="Layer 2">
    <g>
      <path class="cls-5" d="M797,8.52c-41.56-3-133.4-8.52-133.4-8.52,0,0-290.44.16-411.37.48L3,13.52l-.45,6.44S.89,151.78.48,212.31l.48.15c-.37,7.93-.48,23.51-.48,23.51l-.48,30.71s.76,33.01.96,41.26c-.27.11-.48.22-.48.32,0,23.34.24,46.67.48,70.01.44,42.08,1.04,127.25,1.04,127.25l463.84,3.44h22.56l103.77-.48,202.83-6.96s1.47-259.85,1.4-389.33c.17-11.02.33-22.05.48-33.1l.12-70.57ZM445.56,64.33c1.21-4.34,2.64-8.78,4.25-13,2.09-5.51,5.42-10.3,10.21-13.78.77-.56,7.45-.29,7.49,4.01-6.15,5.26-10.73,16.03-14.03,23.89-1.78,1.38-4.3,2.62-6.54,2.1-.82-.19-1.62-2.35-1.38-3.22ZM288.74,51.31c.26-.59.82-.9,1.66-.92,6.66-.13,13.03,5.28,17.48,9.94,10.87-.99,12.97-10.01,17.9-14.89,2-1.98,4.7-2.87,6.85-4.76.96-.85,2.95-1.21,3.55.27.47,1.15.26,3.13-.03,4.33-4.75,3.13-12.05,15-14.3,16.84-3.92,3.2-8.53,5.22-12.73,8.12-4.41-2.2-8-4.64-11.38-8.2l-8.52-8.98c-.55-.58-.71-1.22-.48-1.75ZM268.56,68.98l6.88,10.38-14.13.27,7.25-10.66ZM134.01,144.13l-28.74-.14v-20.75s21.29-.1,21.29-.1c3.02-6.59,6.16-12.83,8.77-19.52,1.65-4.24,1.05-8.79,1.92-13.37,2.64,1.59,4.47,3.88,6.97,5.75l8.56-7.01,1.25,7.54c5.57-.99,10.54-2.58,16.24-3.9l-2.38,20.58c.69,1.58,2.15,2.39,3.16,4-1.38,2.05-3.46,3.56-5.44,5.18l-3.06-2.89-12.32,6.75-1.91,6.01c-2.12-.55-4.68-.4-6.6-1.46-.72-1.25.38-3.22.79-4.86-2.23-1.32-4.81-2.36-7.73-2.78-.55,3.84-.21,7.33-.22,11.24l28.54.05.3,7.14,29.15.08v20.83s-29.14,0-29.14,0l-.21-7.14-29.09-.07-.1-11.16ZM165.64,198.33c-1.76,7.23-11.65,7.73-17.77,6.52-4.17-.82-7.2-3.85-7.63-8.46l5.93-2.05c.69,4.1,3.89,6.24,7.95,5.74,2.61-.33,4.85-1.72,5.14-4.14.33-2.73-1.29-4.86-4.03-5.73-2.7-.86-5.38-.52-8.41-.6-.33-.89-.69-2.85-.02-3.76l10.38-7.06-15.32-.3c-.2-1.87-.35-3.58.11-5.18l21.96.04c.17,2.17.28,4.2-.05,6.25l-9.93,6.96c3.48.34,6.6.12,9.14,2.15,2.88,2.3,3.43,6.02,2.55,9.62ZM184.41,204.63c-2.28.21-4.13.17-6.64.03l-.09-21.35-4.65-.25c-.19-1.94-.18-3.83,0-5.86,2.7.03,4.93-1.09,5.58-3.78,2.01-.16,3.72-.21,5.82.04v31.18ZM243.65,203.61c-.78,2.44-3.41,3.28-6.1,2.6l-5.07,11.99-45.92-.09c1.33-4.93,4.29-8.69,4.75-13.17.12-1.74-1.84-3.6-.68-5.57.92-1.56,2.12-2.84,4.63-2.91l13.8-33.8-11-.17-2.44-29.41-14.28-.14v-54.34s24.09-.05,24.09-.05c4.33,0,8.48.53,12.36,2.27,4.18,1.7,7.32,5.1,7.81,9.85h.48l.21-9.64,6.98,10.11,6.95-9.81.29,28.54c.04,3.71.85,7.42,3.2,10.17,1.91,2.25,4.91,2.82,7.55,2.4,7.47-1.19,10.02-10.98,10.11-17.6l.31-23.29,6.54,9.34,7.35-10.31.1,52.34-11.41.08-.22-15.88c0-.51-.89-.41-1.22-.41-1.02-.01-1.89,6.46-5.29,11.56-4.4,6.59-12.68,6.94-19.75,5.21l2.07,25.37,16.64.23-15.72,38.93c2.65,1.18,3.59,3.39,2.89,5.61ZM349.54,207.83c-3.53,3.03-9.49,2.83-12.8-.24-2.87-2.66-2.52-6.7-1.44-9.95-.67-.48-1.6-.39-2.44-.16l-.18,7.86c-.12,5-7.33,4.17-11.55,3.83-5.85-.47-2.93-7.73-3.88-11.85l-66.01-.03v-10.75s65.03-.02,65.03-.02c.82,0,1.09-.27,1.11-.62.07-1.67-4.92.25-5.19-4.63-.12-2.18-.13-4.36,0-6.54.31-5.16,5.69-2.91,6.27-5.06,1.11-4.07,5.91-3.48,10.33-3.21,2.44.15,3.92,1.95,3.93,4.36l.09,15.6,6.56.22.33,7.45c3.21-.74,6.9-.91,9.64,1.34,3.62,2.98,3.87,9.24.19,12.4ZM616.72,203.67c-.73,3.71-3.29,5.87-7.11,6.2-5.14.44-12.08,3.49-17.44-3.18-2.51-3.11-2.93-6.81-2.16-10.73.5-2.55,1.32-4.26,3.7-5.66,1.01-.6,1.88-1.42,2.99-1.92.3-.02.59-.1.86-.25.03-.02.05-.04.08-.06.14-.03.27-.07.42-.09,1.11-.15,2.08-.81,2.88-1.33.08-.39-.16-.84.22-1.47.37.31.39.78.78.92.58-.29,1.14-.44,1.87-.87l-.43.88.06.56c1.2-.5,2.01.33,2.76.89l2.23-1.38c.44.39.18.94.23,1.43.82,1.15,2.3-.05,3.43.36,1,1.59,2.05,3.07,3.29,4.36,1.73,1.79,1.99,8.12,1.35,11.37ZM681.56,141.33c-.15,3.8-3.35,3.8-2.91,6.16.18.95,4.36,2.52,2.36,6.36-.61,1.17-.98,2.28-2.3,3.05,1.37,2.07.73,4.32-1.32,5.51-2.48,1.44-5.47,1.31-8.27,1.24-2.71-.06-4.28-1.56-6.33-2.76-1.72-1.01-3.16-2.25-4.22-4.03-3.98-.09-8.91-.29-12.67.09.47,2.45-.02,5.06-2.89,6.08-3.08,1.09-6.17.44-9.41.4-3.2-.04-6.34.82-9.44-.51-2.46-1.05-3.72-3.22-2.61-5.98-2.7-.02-5.86-1.21-6.07,1.56l-7.73.4c-1.24.06-6.02,4.43-8.37,4.63-.08,15.7-19.41,25.05-32.63,25.3-2.41-.79-3.25-4.37-5.09-5.61-8.64,2.85-9.91-1.46-20.87,3.32-5.58,2.43-12.51,6.22-18.06,1.57-3.38-2.83,2.99-13.05,4.84-14.94l14.06-14.37-14.76-.13-3.98,16.72-64.2,41.93-50.49-14.12c-.71,3.52-2.61,5.56-5.7,6.31-3.11.78-6.88.58-9.42-1.75-3.29-3.03-3.18-8.6-.31-11.82,1.75-1.96,4.12-1.97,6.53-2.55l-3.19-19c-3.1-.2-5.04-.26-8.62.03,3.16,4.11-.45,9.26-.78,12.66,1.57,3.88,4.63,7.88,2.7,13.2-1.3,3.59-4.21,7.06-8.85,8.42-9.1,2.66-24.4,2.38-27.81-8.99-1.47-4.92,1.08-8.72,2.93-12.48-.64-3.36-3.88-8.31-1.03-12.42-.87-.55-1.75-.65-1.92-1.22l-.06-40.54-21.27-.11-.25-15.08c-4.14,6.71-9.07,12.43-15.72,17.23,7.7,3.93,7.65.49,9.47,1.18,2.84,1.08,5.43,1.98,8.59,1.41-.15,4.92-5.29,1.17-5.18,3.89.02.54.95,1.08.77,1.64-.44,1.36-4.33,2.49-4.95,4.57-1.23,4.15-1.78,8.49-4.07,12.23-4.57,7.45-13.23,10.46-21.57,9.11-4.41-.72-7.85-2.09-11.67-4.36-2.19-1.3-4.26-2.22-5.34-4.63-2.51-5.61,3.37-13.25,6.74-18.11-2.26-4.86-8.06-9.63-9.84-14.74-3.18-9.12-2.01-27.03,2.09-35.17,3.42-6.8,18.27-15.66,25.14-19.12.99.57,1.62,1.35,2.49,1.51,3.33-1.26,5.82-4.87,9.35-5.73,3.36-.03,6.73,3.26,8.7,5.91,4.64,6.22,5.61,14.45,3.09,21.6l-4.24,1.46c-.93-.03-1.91-1.04-2.68-1.6-.44-5.52-3.29-10.66-8.72-12.78-1.53-.6-4.6-.11-6.07.91-4.81,3.35-11.05,4.73-15.29,8.74-5.64,5.34-6.33,25.65-.97,31.86,5.03,1.6,11.05,1.41,16.37,1.34,3.15-.05,6.19-1.23,8.25-3.36,3.46-3.58,5.98-7.63,8.77-11.77l6.61-.4.12-32.1h41.87s0,9.28,0,9.28l-29.93.14.18,13.09,25.64.06c.17,3.04.15,5.67,0,8.57l-25.78.08.1,13.61,29.99.04c.38,3.24-.23,6.26.3,9.3.08.46,1.71.44,1.72-.39l.03-53.49,11.91-.02.13,15.71c0,.72,1.13.57,1.55.5,1.7-.31,1.67-18.39,20.72-17.66,7.42.28,13.58,4.53,15.69,11.68l1.72,5.85,9.23-12.3c2.84-3.79,5.47-7.34,7.65-11.62,1.9.08,4.32-.7,5.99.26.84,1.5,1.62,4.32,1.77,6.14l-4.02,8.37c2.43,1.68,4.59,3.49,6.73,5.63l7.14-14.38,36.3-14.34c15.19,16.15,32.75,24.68,39.78,46.94.48,1.51.33,2.83.44,4.49l15.1-10.1c1.86-1.24,3.22-3.19,3.92-5.21,1.07-3.07-.28-6.25-3.4-7.09-2.73-.74-5.81-.45-7.71,1.69-1.54,1.72-1.6,4.04-1.83,6.44l-7.94-1.5c-.46-6.12,2.96-11.35,8.77-13.11,6.03-1.83,15.28-1.28,19.37,4.8,3.3-6.37,9.38-9.45,16.31-9.32,7.36.15,13.44,4.37,15.88,11.4,1.6,4.62,1.93,9.3,1.5,14.45,2.32,0,3.68,1.82,5.42,2.57,2.5,1.08,3.74,2.87,4.25,5.45,4.34.44,9.53.23,13.91.03-.14-2.68-.2-4.36,1.19-5.97,1.72-2,6.37-2.79,8.18-2.08,3.45,1.35,8.6-2.17,13,1.84,1.77,1.62,1.2,3.9,1.44,6.37l13.85-.16c.21-2.86,2.15-4.13,4.16-5.5,3.14-2.14,6.27-3.44,10.21-2.45,7.07,1.76,3.91,7.84,5.12,9.21,1.22,1.38,2.37,2.49,2.19,4.31-.15,1.5-.71,2.8-2.06,3.93-2.39,2.01,2.76,3.2,2.56,6.61-.08,1.34-.85,2.93-2.1,3.8-3.23,2.24,2.19,3.62,2.06,6.82ZM718.48,469.75l-12.26-5.42-12.25,5.45,5.46-12.24-5.48-12.35,12.23,5.47,12.43-5.46-5.55,12.2,5.42,12.35ZM198.3,93.19l-6.25-2.2-5.83,3.16,2.22-6.25-3.18-5.88,6.24,2.23,5.92-3.17-2.27,6.23,3.15,5.88Z"/>
      <g>
        <path class="cls-4" d="M226.11,95.47c-.16.42-.34.41-.54,0,.22-1.76.18-3.44.03-4.8h.48l.03,4.8Z"/>
        <path class="cls-5" d="M427.59,98.83c-.09-1.11.11-1.43.61-.96.49,1.14.63,3.19,1.9,3.32,2.28.22,8.11-2.48,9.02-.49,1.39,3-5.56,16.05-7.14,20.34-.85,2.31,1.95,4.86,3.02,6.49l-4.55,10.93c-1.54,3.69-2.7,7.32-3.63,11.19.21,1.47,1.56,2.97,2.44,4.31,2.18-.89,3.77-2.31,5.34-4.15,7.7-8.98,13.45-19.47,16.64-30.61l5.54,17.69,17.43,11c-5.6,5.44-10.45,11.55-16.56,16.3-2.95,2.11-7.78,2.05-11.36,2.5-10.77,1.35-21.22,1.39-32.04,1.64-2.93.07-5.6.41-8.51.06l-.06-35.31-15.55-.12.08-25.47c.02-4.75,1.25-9.25,3.82-13.04,2.93-4.31,8.32-6.11,13-3.71,5.03,2.58,5.74,10.11,5.78,15.31l.21,26.67,7.61-10.55,6.85,9.79.11-33.11Z"/>
        <path class="cls-5" d="M484.5,168.37c15.68-12.89,25.44-31.72,23.81-52.22-2.73,1.88-4,4.96-6.79,6.69-11.8,7.28-41.09,12.68-41.09-4.87,0-9.25,6.61-19.84,12.39-26.86,2.44-2.96,5.61-5.03,9.42-5.8,2.87-.58,5-2.47,7.54-3.47,3.62-1.42,7.81-.41,11.7-1.24,13.95,9.8,19.28,34.03,16.52,49.99-4.29,24.74-20.69,45.48-43.33,56.09-13.68,6.41-36.39,11.88-50.76,6.71-4.51-1.62-8.39-4.64-10.28-9,1.55-1.51,3.51-1.29,5.43-1.2,7.48.32,22.82,4.92,29.74,3.28,13.19-3.13,25.14-9.4,35.71-18.09ZM501.35,107.84c1.2-2.08,2.52-5.19,1.5-7.43-1.89-4.14-5.81-6.78-9.77-8.43-10.86,8.87-23.89,9.75-21.91,27.22,10.68,5.59,24.56-1.56,30.18-11.35Z"/>
        <path class="cls-5" d="M398.56,147.11c1.16,4.12-14.2,17.83-17.89,20.01-8.6-1.66-5.35-2.03-8.43-4.81-1.5-1.36-3.97-1.34-5.36-2.88-4.06-4.48-7.89-10.29-8.75-16.52,1.44-5.36,14.34-4.04,18.29-.83,2.33.07,4.7-1.93,7.08-1.39,5.35,1.21,10.31,3.82,15.07,6.42Z"/>
        <path class="cls-5" d="M563.06,158.8l-.05.5-3.56,8.93c-1.22,3.07-.23,6.2.04,9.51-8.28-3.58-18.11.33-25.66,3.08-.73-.65-.45-1.91.14-2.56l14.81-16.35c1.01-1.12,2.39-1.7,3.16-3.08l-9.99-.28,10.04-9.93c-.37-1.78.51-3.81-.36-5.43-1.04-1.95-4.68-2.95-6.55-1.86l-11.73,6.8c-1.3-1.76-3.37-4.88-1.9-6.98s4.36-3.26,6.55-4.43c8.42-4.47,5.4-6.71,16.12-2.63,5.65,2.15,7.75,7.75,6.08,13.19-2.1,6.83-.25,4.87-6.89,11.22l9.75.31Z"/>
        <path class="cls-5" d="M647.46,128.5c.59-.07.96-2.07.96-2.07l16.41.23-.21,4.55-7.37,9.24,7.52.33-.02,5.64h-16.46s-.08-1.57-.49-2.44c-2.55,2.58-5.89,3.2-9.63,2.49-2.95-.57-5.44-3.09-6.9-6.31l-10.38,4.29-.49-4.31-4.47,1.77.02-10.44,4.65,1.72.3-4.19,10.28,4.19c1.36-4.23,4.68-7.14,9.11-7.19,2.85-.03,5.39.53,7.18,2.49ZM656.01,132.14l-6.34-.13c1.24,2.4-5.55,1.44-6.22,1.14-1.07-.47-1.57-1.69-2.89-1.37-.89.22-1.94.56-2.47,1.77-.84,1.91-.74,4.16.28,6.01.57,1.03,1.68,1.22,2.59,1.34,2.03.26.06-2.88,9.01-1.75l6.04-7.02ZM627.26,136.63l-5.34-2.04.09,4.18,5.25-2.15Z"/>
        <path class="cls-5" d="M379.2,187.07c-.16.37,0,.72.48,1.04,3.54.79,6.12,3.65,6.52,7.2s-1.23,7.48-5,9.16c-6.1,2.71-13.65,2.72-19.8.14-4.1-1.72-5.89-5.73-5.23-9.91.59-3.67,3.84-6.21,8.07-7.04-1.92-1-3.68-1.14-5.08-2.77-2.3-2.68-2.72-7.61-.4-10.46l24.61-.05c1.46.93,1.43,3.52,1.5,5.03.19,3.8-2,6.72-5.67,7.67ZM375.13,183.74c1.68-1.03,1.96-2.75,1.62-4.49-.6-3.08-4.84-3.77-8.02-3.05-2.11.48-3.27,2.16-3.32,4.01s.88,3.39,2.75,4.08c2.17.8,4.8.79,6.96-.54ZM378.27,195.06c-.07-1.7-1.1-3.08-2.94-3.67-3.4-1.09-11.15-1.18-11.17,3.65,0,1.79.9,3.25,2.78,3.98,3.8,1.47,11.53.99,11.33-3.96Z"/>
        <path class="cls-5" d="M563.01,159.3c.06-.14-.02-.36.05-.5,1.71-3,3.04-6.2,5.17-9.21,2.65-3.74,5.31-7.78,9.26-10.25s8.27-4.74,12.66-6.69c.46-.21,7.32-.8,9.15,1.78-.14-.2,1.49,4.5-1.77,6.09-1.29.63-2.11,2.03-3.5,2.85-8.92-1.55-15.34,4.97-20.1,12.17,8.5-2.3,17.5-5.5,24.5.96.4.37.72,1.14.52,1.53-.17.32-.78.65-1.43.65h-32.08c-1.03,0-1.84.08-2.43.62Z"/>
        <path class="cls-5" d="M573.84,114.15c-4.92-6.95-3.99-26.7,6.65-26.22,2.63.12,5.22,1.92,6.53,4.71,3.76,8.01,3.18,23.33-5.54,24.92-3.1.56-5.74-.73-7.64-3.41Z"/>
        <path class="cls-5" d="M585.17,175.44l-9.51,5.44c-1.81,1.04-4.58.2-6.48.2-1.82-2.29-1.58-4.77-1.76-7.39-.43-14.16,15.57-13.16,15.57-13.16l8.08-.04s1.92,4.04-.05,8.49c-1.21,2.8-3.07,4.87-5.86,6.46Z"/>
        <path class="cls-1" d="M565.17,117.25c-5.71.13-13.85.54-19.32.01l10.69-6.75c1.97-1.24,3.53-2.6,5.3-4.17.52,4.05,1.48,7.36,3.33,10.9Z"/>
        <path class="cls-1" d="M400.65,200.7c.7,1.11,2.71.71,3.78,1.52.29,2.58-2.1,4.02-4.59,4.01-1.99-.01-3.97-.28-4.91-1.93-.87-1.53-.87-3.51-.01-5.02.91-1.61,2.87-2.28,4.85-1.82.67.81.17,2.11.88,3.24Z"/>
        <path class="cls-12" d="M335.55,101.99c1.85-.96,3.79-.05,4.57,1.63.7,1.5.29,3.72-1.65,4.46-1.41.54-3.37.33-4.36-1.36-.79-1.35-.58-3.69,1.43-4.73Z"/>
        <path class="cls-6" d="M449.61,113.17c-.02.67-1.81.93-2.49.98-.67-2.46-.5-4.9.68-7.11.89,1.97,1.41,3.7,1.81,6.12Z"/>
        <path class="cls-7" d="M428.2,97.87c-.39.16-.57.56-.61.96,0-1.18-1.12-2.92-.38-3.91.67,1.05.61,2.08.99,2.95Z"/>
        <path class="cls-10" d="M379.2,187.07l.48,1.04c-.7-.03-1.2.12-1.44-.27-.13-.21-.06-.57.24-.72.18-.09.5,0,.72-.05Z"/>
        <path class="cls-5" d="M208.56,203.36l26.27-31.78-23.64-.37c.64-2.84,1.32-4.9,2.67-6.83,7.17-1.63,20-1.51,27.57-1.2,2.88.12,5.54-.96,8.43-.17-5.03,8.36-11.06,15.53-16.24,23.4l-4.83,7.34-16.67,19.16c-4.29-.22-7.98.38-12.42-.33,3.33-3.22,6.02-5.8,8.86-9.23Z"/>
        <path class="cls-5" d="M193,86.52s19.87-1.71,21.12,6.81c.42,2.84-.79,5.47-3.51,6.73-2.03.94-4.34,1.48-6.65,1.48h-11.29s.33-15.03.33-15.03Z"/>
        <path class="cls-5" d="M215.06,120.7c-1.7,1.9-4.33,2.64-6.74,2.64l-15.69.03v-14.29s12.34-.06,12.34-.06c3.82-.02,9.54,1.22,10.93,5.08.79,2.21.79,4.76-.85,6.6Z"/>
        <path class="cls-11" d="M225.57,95.47h.54c.03,5.49.2,10.4-.05,15.98-3.93-5.35-12.94-5.43-13.17-5.81-1.08-1.82,3.14-.88,7.66-3.38,2.59-1.43,4.66-3.91,5.01-6.8Z"/>
        <path class="cls-3" d="M230.38,127.8c-1.97.28-3.76.31-5.79.02,1.53-1.94,2.25-3.38,3.13-5.6.85,1.88,1.42,3.49,2.66,5.57Z"/>
        <g>
          <path class="cls-8" d="M144.93,112.4c-1.17-.08-.46-4.18.92-3.87,1.29.29.86,3.99-.92,3.87Z"/>
          <path class="cls-8" d="M139.58,107.92c.5,1.44-.72,2.77-2.07,3.23-.64-1.09-.19-2.37.58-3.37.29-.38,1.25-.56,1.49.14Z"/>
        </g>
        <path class="cls-5" d="M320.95,181.6l-5.11-.3c-.12-2.1-.29-4.1.02-6.2.23-1.52,5.15.56,6.24-4.8,2.34-.18,4.37-.19,6.8,0l-.02,16.11c-2.72.16-5.1.14-7.73.01l-.19-4.83Z"/>
        <path class="cls-11" d="M347.06,205.08c-2,1.65-5.28,1.54-7.27.23-2.32-1.53-2.28-5.57.03-7.14,1.99-1.36,5.17-1.32,7.13.12s2.11,5.13.11,6.79Z"/>
        <path class="cls-11" d="M328.91,205.32c-2.79.29-5.1.16-7.83.07-.13-2.86-.13-5.3.02-8.01h7.72s.1,7.94.1,7.94Z"/>
        <path class="cls-9" d="M374.54,195.24c-2.07,1.29-4.47,1.29-6.64-.03,2.11-1.18,4.37-1.21,6.64.03Z"/>
        <path class="cls-2" d="M372.8,180.38c.13,1.01-3.38,1.16-3.42-.06-.04-1.03,3.25-1.31,3.42.06Z"/>
      </g>
      <line class="cls-5" x1="184.84" y1="81.48" x2="184.79" y2="82.12"/>
    </g>
  </g>
</svg>