<?xml version="1.0" encoding="utf-8"?>
<!-- Generator: Adobe Illustrator 26.1.0, SVG Export Plug-In . SVG Version: 6.00 Build 0)  -->
<svg version="1.1" id="Layer_2_00000137827034812969390800000012839218573999194287_"
	 xmlns="http://www.w3.org/2000/svg" xmlns:xlink="http://www.w3.org/1999/xlink" x="0px" y="0px" viewBox="0 0 188 63.2"
	 style="enable-background:new 0 0 188 63.2;" xml:space="preserve">
<style type="text/css">
	.st0{fill:#A80053;}
</style>
<g id="Layer_2-2">
	<g>
		<g>
			<path class="st0" d="M181.9,49.9c-1.4,4.4-4,13.3-4,13.3H2.5L1.7,50.4L1.3,42L1,33.6l-1-25l10.3-1.8l59.2-5.4l21-1.4L175,4.4
				l7.6,0.5l3.4,12l2.1,12.6L182,49.8L181.9,49.9L181.9,49.9z M28,22.5c5.3-0.9,3.8-3.8-0.7-4.4c-0.7-0.1-1.4,0-2.1,0
				c-0.9-0.2-2-0.5-3-0.3c-1,0.4-2.1,0.3-3.2,0.3c-1.3,0-4.6,0.8-4.4,2.5c0.3,1.4,2.3,1.8,3.5,2c0.8,0.4,1.8,0.1,2.9,0.2
				c1.8,0,4.8,0,6.3,0c0.2,0,0.4-0.1,0.5-0.2S28,22.5,28,22.5z M167.9,36.6c-0.3-1.8,0.8-3.4,1.5-5c1.3-3,3.1-6.1,4.1-9.1
				c0.2-1.3-2.5,0.6-3.1,0.7c-2,0.8-3.8,1.9-5.8,2.6c-2.1,0.6-3.9,2.7-6.2,1.7c-2.2-1-4.4-2.1-6.7-3c-1.6-0.8-3.2-1.7-5-2.4
				c-1-0.3-0.9,0.3-0.4,1.3c0.5,1.1,0.6,1.9-0.7,1.9c-2.3,0.2-3.7-0.5-6-0.3c-1.9,0-4-0.1-5.8,0.3c-5.5,0.2-10.9,0.8-15.8,3.4
				c-0.5,0.2-1,0.6-1.5,0.7c-0.8,0.1-0.7-1-1.6-1c-3.1,0-6.7,0-9.9,0c-2.3,0-3.3-0.2-5.3-0.9c-2.5-1.2-1.6-3.1,0.8-3.6
				c4.2-1,8.7-0.2,12.8,0.6c0.4,0.1,0.9,0,1.2-0.1c0.8-0.6,0.8-1.8,0.9-2.7c0.1-0.8-0.1-1.5-0.7-1.8c-3.4-1-7.2-0.9-10.6-1.4
				c-1.9,0-4-0.1-5.8,0.3c-3.2,0.1-5.5,0.5-8.5,1.3c-2.6,0.5-5.7,3.1-3.3,5.7c1.3,1.2,3.2,1.6,4.9,2c0.7,0.3,2.9,0.3,3.1,0.9
				c-0.1,0.3-1.1,0.2-2.6,0.2c-3.1,0-8.2,0-9.6,0c-0.6,0-0.6,0.6-0.6,1.2c0,0.7-0.2,2,0.4,2.5c1.9,0.3,4.9-0.1,6.8,0.2
				c0.3,0.1,0.3,0.3,0.3,0.5c0,1.4,0,7.3,0,9.9c0,1.6,0.3,1.9,1.5,2c2.5,0,10.2,0,11.5,0c0.2,0,0.3-0.1,0.3-0.2
				c0.2-1.5,0-9.5,0.1-11.6c0-0.4,0.1-0.6,0.5-0.6c1.5,0,7.6-0.1,9.8,0.1c0.3,0.1,0.4,0.5,0.3,1.1c-0.2,1.7-0.1,3.7,1,5
				c3.9,5.3,11.8,5.6,17.6,6.5c3.7,0.2,9.6,0.1,12.6,0c2.6-0.6,3.1,0,1.7,2.7c-0.4,0.8-0.7,1.5-0.4,1.6c2,0,3.8-1.6,5.6-2.2
				c1.8-0.8,3.5-1.7,5.3-2.5c0.8-0.4,1.6-0.9,2.5-0.9c0.6,0,1.5,0.3,1.9,0.5s0.7,0.3,1.1,0.5c3.1,1.5,6.2,3,9.3,4.4
				c3.1,1.5,0.8-1.5,0.4-2.9c-1.4-3.2-3.2-6.4-4.4-9.7L167.9,36.6L167.9,36.6z M57.2,29.7c3.8-0.4,10.2,0,11.2,4.6
				c0.1,2.7,0,6.3,0,9.1c0,1-0.1,1.3,0.2,1.4c2.1,0.1,10.9,0,12.8,0c0.3,0,0.4,0,0.4-0.3c0-0.4,0-1.3,0-2.5v-7.3
				c0.1-2.5-0.9-4.2-2.5-5.9c-4.4-3.6-11.4-3.6-16.9-3.6c-4.3,0.5-8.9,0.6-12.5,3.3c-1.1,0.4-3.6,4.6-4.4,2.4c-0.1-1,0-3.5-0.1-4.4
				c0-0.5-0.2-0.8-0.8-0.7c-2.1,0-8.6,0-10.3,0c-0.2,0-0.3,0.1-0.3,0.3c0,2.6,0,6.9,0,9.9c0,2.3,0,4.9,0,7.1c0,1.3,0.2,1.7,2,1.7
				c3.4,0,8.3,0,11.4,0c0.3,0,0.3-0.3,0.3-1.1c0.1-2.6-0.2-5.8,0.1-8.3c0.9-3.8,5.5-5.3,8.9-5.8L57.2,29.7L57.2,29.7z M29.5,25.8
				c-3.4,0-9.9-0.2-13.4,0.1c-0.1,0.7,0,17,0,18.7c0,0.5,0.6,0.1,2,0.2c2.7,0,10.8,0,11.4,0c0.3-0.1,0.1-0.6,0.1-1
				C29.6,40.8,29.7,29.9,29.5,25.8L29.5,25.8L29.5,25.8z"/>
			<g>
				<path class="st0" d="M141.1,41.3c3.1-0.4,6.3-0.5,8.4-3.3c1.3-2,0.6-5-1.3-6.3c-2.2-1.5-4.6-2-7.1-2.2c-1.2-0.3-3.1-0.3-4.4-0.2
					c-2.2,0.4-4.6,0.4-6.6,1.5c-3.1,1.2-4.2,5.4-1.7,7.7c2,1.9,4.7,2.6,7.4,2.8c1.5,0.3,3.6,0.5,5.1,0.2
					C141,41.4,141.1,41.3,141.1,41.3z"/>
				<path class="st0" d="M141,41.4c-1.5,0.2-3.3,0.2-4.8-0.2c-2.5-0.2-5.2-0.7-7.2-2.3c-3.1-2.3-2.3-6.8,1.1-8.2
					c2.3-1.1,4.7-1.2,7.3-1.5c1.3,0,2.4,0,3.6,0.3c2.8,0.2,5.4,0.7,7.6,2.5c2.8,2.6,1.5,6.9-1.9,8.2c-1.8,0.8-3.6,0.8-5.6,1.1
					L141,41.4L141,41.4z"/>
			</g>
		</g>
	</g>
</g>
</svg>
