<svg id="Layer_2" data-name="Layer 2" xmlns="http://www.w3.org/2000/svg" viewBox="0 0 188.01 63.18"><defs><style>.cls-1{fill:#7cb9a3;}</style></defs><g id="Layer_2-2" data-name="Layer 2-2"><path class="cls-1" d="M181.86,49.86c-1.38,4.36-4,13.31-4,13.31H2.46L1.66,50.4,1.31,42,1,33.57,0,8.54,10.34,6.78l59.25-5.4L90.6,0,175,4.36l7.56.47,3.37,12L188,29.38l-6.1,20.33,0,.15ZM28.05,22.49c5.26-.94,3.77-3.83-.69-4.43-.66-.06-1.43,0-2.1,0a7.72,7.72,0,0,0-3-.29A8.4,8.4,0,0,1,19.1,18c-1.26,0-4.62.83-4.39,2.51C15,22,17,22.33,18.2,22.58c.79.37,1.84.11,2.91.18,1.78,0,4.79,0,6.29,0,.18,0,.35-.15.53-.21ZM167.92,36.57c-.34-1.79.83-3.43,1.52-5,1.28-3,3.1-6.13,4.14-9.15.17-1.29-2.54.64-3.06.74-2,.83-3.77,1.89-5.77,2.65s-3.95,2.69-6.22,1.69-4.43-2.07-6.73-3a48.23,48.23,0,0,0-5-2.35c-1-.32-.85.29-.38,1.33s.56,1.85-.67,1.91c-2.3.2-3.73-.46-6-.32a31.12,31.12,0,0,0-5.76.28c-5.47.17-10.91.82-15.78,3.4a6.56,6.56,0,0,1-1.48.73c-.82.14-.73-1-1.56-1-3.12,0-6.7,0-9.89,0a13.42,13.42,0,0,1-5.27-.91c-2.51-1.21-1.56-3.13.84-3.63,4.23-1,8.69-.2,12.78.58a1.92,1.92,0,0,0,1.22-.14c.85-.56.75-1.75.94-2.68a1.61,1.61,0,0,0-.67-1.81c-3.45-1-7.15-.85-10.63-1.35a28.34,28.34,0,0,0-5.8.27,33.12,33.12,0,0,0-8.49,1.26c-2.6.53-5.67,3.06-3.33,5.69,1.28,1.19,3.2,1.61,4.86,2,.7.26,2.86.28,3.14.86-.1.29-1.12.21-2.56.22-3.12,0-8.17,0-9.57,0-.61,0-.58.57-.61,1.17s-.21,2.05.42,2.45c1.88.35,4.88-.07,6.79.19.26.07.3.26.32.5,0,1.4,0,7.35,0,9.9,0,1.63.28,1.94,1.48,1.95,2.46,0,10.15,0,11.46,0a.41.41,0,0,0,.33-.15c.2-1.53,0-9.53.09-11.6,0-.36.09-.63.5-.63,1.48,0,7.59-.14,9.84.07.35.12.38.47.34,1.07a7,7,0,0,0,1,5c3.9,5.27,11.85,5.56,17.62,6.47,3.7.21,9.57.12,12.63,0,2.63-.59,3.09,0,1.69,2.69-.36.76-.68,1.45-.4,1.6,2,0,3.79-1.56,5.65-2.21s3.47-1.67,5.29-2.5a7.17,7.17,0,0,1,2.51-.94,4,4,0,0,1,1.9.49l1.07.51c3.08,1.47,6.21,3,9.32,4.36,3.06,1.54.82-1.5.39-2.86-1.37-3.15-3.21-6.43-4.39-9.71l0-.15ZM57.2,29.67c3.85-.4,10.21,0,11.23,4.6.07,2.73,0,6.3,0,9.1,0,1-.06,1.35.24,1.42,2.1.1,11,0,12.82,0,.26,0,.41,0,.45-.33s0-1.3,0-2.55V34.68c.14-2.49-.91-4.19-2.46-5.87-4.45-3.64-11.36-3.58-16.93-3.63-4.31.47-8.91.63-12.45,3.31-1.09.43-3.61,4.61-4.42,2.41-.12-.95,0-3.48-.06-4.43,0-.55-.2-.76-.78-.72-2.12,0-8.59,0-10.27,0-.21,0-.26.11-.27.33,0,2.65,0,6.9,0,9.92v7.12c0,1.3.15,1.74,1.95,1.67,3.36,0,8.29,0,11.39,0,.32,0,.31-.3.31-1.06.09-2.59-.16-5.77.13-8.27.91-3.84,5.45-5.33,8.94-5.77l.14,0ZM29.54,25.78c-3.41,0-9.92-.19-13.44.07-.06.71,0,17,0,18.73,0,.47.62.14,2,.24,2.72,0,10.82,0,11.42,0,.28-.11.08-.62.14-1,0-3,.08-13.94,0-18l0,0Z"/><path class="cls-1" d="M141.13,41.33c3.06-.44,6.34-.54,8.36-3.33a4.82,4.82,0,0,0-1.33-6.34A13.36,13.36,0,0,0,141,29.5a15,15,0,0,0-4.37-.22c-2.19.4-4.56.43-6.56,1.45-3,1.2-4.23,5.36-1.69,7.68,2,1.92,4.66,2.57,7.45,2.76a15.55,15.55,0,0,0,5.14.19Z"/><path class="cls-1" d="M141,41.36a14.19,14.19,0,0,1-4.78-.15,13,13,0,0,1-7.25-2.3,4.7,4.7,0,0,1,1.13-8.19c2.32-1.08,4.67-1.16,7.33-1.5a13.55,13.55,0,0,1,3.6.27A12.71,12.71,0,0,1,148.61,32a4.85,4.85,0,0,1-1.9,8.16c-1.81.8-3.64.82-5.58,1.14l-.13,0Z"/></g></svg>