<?xml version="1.0" encoding="UTF-8"?>
<svg id="Layer_2" data-name="Layer 2" xmlns="http://www.w3.org/2000/svg" viewBox="0 0 677.32 649.64">
  <defs>
    <style>
      .cls-1 {
        fill: #fff;
      }
    </style>
  </defs>
  <g id="Layer_2-2" data-name="Layer 2">
    <g id="Layer_1-2" data-name="Layer 1">
      <path class="cls-1" d="M335.91,649.5c-5.32.55-11.17-.62-16.55-1.67-21.95-4.35-46.31-8.01-68.53-12.55-3.9-.81-17.86-2.25-21.06-9.59s14.21-61.3,15.01-64.34c1.62-6.29,3.22-8.61-.34-10.99-8.83-4.84-19.37-6.57-28.53-11.3-5.92-2.78-73.19-27.75-78.27-25.78s-18.41,38.48-24.09,49.54c-8.34,15.67-13.73,20.28-28.99,14.27-5.54-2.19-75.05-30.03-83.34-43.84-3.92-7.02,2.58-14.81,6.12-22.02,24.33-47.06,103.31-225.31,123.55-266.98,1.84-4.51,3.12-8.48,4.57-12.64,2.71-8.29,5.87-15.43,8.28-24.17,7.24-34.5,13.24-68.41,15.58-104.11.64-14.68,2.82-29.09,3.58-43.71.83-10.46-1.13-33.72,6.62-40.73,6.01-.56,84.14,70.29,84.14,70.29l21.09,17.62s13.24-10.02,20.97-15.95c31.61-26.8,62.62-55.25,94.36-82.15,3.45-3.07,10.92-8.71,13.75-8.71s4.91,10.64,6.05,21.72c.82,8.11,4.79,53.85,6.56,63.13,2.27,9.03,1.88,25.07,6.13,28.19s159.65-36.72,221.84-52.74c7.16-1.44,20.56-5.57,22.12-3.73s1.81,13,1.45,19.85c-1.1,19.11-7.13,48.41-10.37,68.42-6.92,62.39-28.16,217.7-27.03,222.22s46.78,49.41,46.78,56.47-.24,6.2-4.99,11.48c-21.24,25.11-44.36,39.1-67.59,61.92-3.77,3.56-8.66,6.41-13.56,3.8-4.53-2.22-8.66-8.36-12.99-13.55-6.79-8.01-22.99-26.28-27.7-27.22s-12.81,5.03-16.51,7.05c-43.29,29.2-99.95,50.64-144.14,78.37-8.76,5.86-24.33,11.9-28.57,18.67s-16.62,85.6-25.2,85.44l-.16.02ZM190.74,277.56c-5.38-.23-15.95,13.62-17.47,18.25s-4.66,17.22-5.06,21.29c-.95,7.25-2.7,20.17,8.46,15.11,7.29-3.62,13.56-10.1,19.1-16.21,5.94-7.62,12.66-17.78,11.45-27.45-1.41-6.43-10.4-11.03-16.37-10.99h-.11ZM300.79,292.26c-8.81-4.35-14.58,6.14-17.44,13.33-3.12,7.5-5.26,14.28-6.5,23.12-.77,7.7-4.06,26.04,8.25,24.78,6.33-.71,11.91-4.62,15.48-9.8,3.39-4.84,5.28-11.42,6.71-18.14,2.48-11.14,4.17-26.24-6.36-33.21l-.13-.07Z"/>
    </g>
  </g>
</svg>