<?xml version="1.0" encoding="utf-8"?>
<!-- Generator: Adobe Illustrator 26.1.0, SVG Export Plug-In . SVG Version: 6.00 Build 0)  -->
<svg version="1.1" id="Layer_2_00000084526529384277951450000005455724969580921264_"
	 xmlns="http://www.w3.org/2000/svg" xmlns:xlink="http://www.w3.org/1999/xlink" x="0px" y="0px" viewBox="0 0 175.2 213.8"
	 style="enable-background:new 0 0 175.2 213.8;" xml:space="preserve">
<style type="text/css">
	.st0{fill:#A80053;}
</style>
<g id="Layer_2-2">
	<path class="st0" d="M175.2,0v213.8H-31.9V0H175.2z M10.8,90c-4.6,0-7.7,4.2-7.6,8.3l0.1,19.4c0,3.9,3.8,7.1,7.6,7.1l20.3,0.1
		l0.1,6.1h7.5c-0.9,1.9-1,4-0.4,5.7c0.6,0,1.9-0.3,2,0.1s0.2,1.2,0.2,1.7l0.2,1.5c0,0.3,0.9,0.2,1.3,0.1v13.1
		c-9.1,0.1-17.8,0.5-26.7,1c-4.1,0.2-7.6,1.6-11.5,2c-6.1,0.6-11.8,1.1-17.7,2.9c-1.4,3-2.1,6.4-2.4,9.9c-0.3,5.1-4.1,3.4-0.5,14
		c0.8,2.4,1.3,4.6,0.9,6.9c-0.4,2.3,1.7,2.4,2.6,3.3c2,2,3.6,2.5,6.6,2.6c3.1,0.2,7.1,2.5,10.3,1.9c2.5-0.5,3.6,0.3,5.7,0.6
		c18,2.2,36,2.9,54.2,1.5l19.2-1.5c0.3,0-0.3-1.2-0.4-1.1c1.6-1,3.3,0.4,5,0.2c3.4-0.4,7-0.7,10.1-1.7l8.2-2.7
		c0-1.7,0.4-2.8,0.8-4.1c1.2-3.3,0.5-6.9,2.2-9.8c2.9-4.9-2.5-11.3-1.6-16.5c0.4-2.4-1.2-3-2.7-3.8c-3.4-1.8-13.1-2.4-17-2.9
		S80,154.2,76,154c-8.8-0.5-17.4-0.9-26.4-0.9v-12.9c0.6-0.1,1.3-0.2,1.3-0.5l0.2-1.4c0.1-0.5-0.1-1.4,0.2-1.7
		c0.3-0.2,1.3-0.1,1.8-0.2c0.5-1.6,0.6-3.8-0.1-5.6l3.7-0.1l0.1,1.8l4.5,0.9l0.2-1.9l0.8,11l9.3,0.7c0.9,1.5,2.1,2.3,3.7,2.3
		s2.6-1,3.6-2.3c2.6,0.1,5.3,0.6,7.8,1.4c-2.4,0.4-4.5-0.3-6.6,0.3l7.6,1.5c-1.1,1-0.8,2.4,0,3.3c1.2,1.2,2.3-0.2,3.5-0.4
		c1.9-0.4,3.6-0.8,4-3.5c1.1,1.4,0.1,2.3,0.6,3.8c5.4,0.5,10.6,0.5,16.1,0.1l0.2-3.4c0.4-0.2,0.9-0.9,0.6-1.2l-0.8-0.9l0.9-1.3
		c0.3-0.4-1.3-0.6-0.4-1.2c1.2,1.1,2.8,1.8,3.5,0.7c0.3-0.4,1.3-1.1,1.8-1.2c5.3-0.3,10.6-0.3,16.1-1c0.2-2.4-0.1-4.5,0.3-7
		c1,2.1,1.5,3.4,3.7,3.2c6-0.4,12.1-0.7,18.3-0.1c0.9,0.9,1.6,1.9,2.6,1.8c1.3-0.1,2.5,0.1,3-1.3c0.4-1.1,0.5-2.9,0.7-4.1
		c1.4-1.8,2.4-3.8,2.4-6.2V88.4c0-2.4-1.1-4.3-2.4-6.1c-0.3-1.3-0.3-3.1-0.8-4.2c-0.6-1.4-1.8-1.1-3.2-1.2c-0.8,0-1.7,0.9-2.5,1.8
		c-6.1,0.7-12.3,0.3-18.4-0.1c-3-0.2-2.6,4.9-9.6,1.2c-1-0.5-2.3,0.5-3-0.5c-0.9-1.5-1.1-4.1-2.4-5c-0.3-0.2-6.7-1.7-7.3,1.7
		l-10.6,0l-0.9-3.1c-1.4,0.7-2.2,0.2-3-0.2c-1,0.8-1.4,2.1-2.5,1.5c-3.2-1.7-0.2-1.6-3-4.3c-0.4-1.9-2.1-2.5-3.9-2.9
		c-1.2-0.3-2.5-1.7-3.7-0.3c-0.8,0.9-0.9,2.2,0.1,3.2l-7.6,1.5c1.9,0.3,3.9,0.2,5.8,0.1s2.2,2,3.1,3.7c-0.9,0.1-2,0.4-2.2,1.7
		c1.3,0,2.7,1.8,1.9,3c-1,1.5-2.3-0.1-3.1-0.6c-1.2-0.7-1.5-1.4-0.9-3.8h-5.1L79.5,79l-17.8-0.1l-0.2,4.4l-0.2-2l-4.5,0.8l-0.2,1.8
		l-3.7-0.1c0.7-1.8,0.7-4.1,0.1-5.6c-0.4-0.2-1.8,0.2-1.8-0.2l-0.1-1.7L51,74.9c0-0.3-0.8-0.4-1.3-0.4v-13c8.7,0,17.5-0.4,26.4-0.9
		c4-0.2,7.5-1.5,11.4-1.9s13.6-1.1,17-2.9c1.5-0.8,3.2-1.4,2.8-3.8c-0.9-5.3,4.5-11.6,1.6-16.5c-1.7-2.9-1-6.5-2.2-9.8
		c-0.5-1.4-1-2.4-0.8-4.2c-2.8-1-5.5-1.6-8.3-2.7c-3-1.2-6.4-1.2-9.8-1.7c-0.7-0.1-5.2,1-5,0.3l0.2-1.1l-20.9-1.6
		C44.5,13.3,27,14.1,9.5,16.3c-2.2,0.3-3.3,1.1-5.9,0.6c-3.3-0.7-7.3,1.8-10.5,1.9c-2.9,0.1-4.4,0.8-6.4,2.6c-1.1,1-3,1.2-2.6,3.7
		c0.4,2-0.1,4.1-0.8,6.2c-3.7,11,0.1,9.3,0.4,14.2c0.2,3.5,0.9,7,2.4,10c5.9,1.8,11.6,2.3,17.7,2.9c4.1,0.4,7.8,1.9,12.1,2l26,1
		v13.1c-0.2-0.1-1.2-0.2-1.3,0.1l-0.2,1.5c-0.1,0.5,0.2,1.7-0.3,1.8c-0.4,0.2-1.4,0.1-2,0.1c-0.4,1.8-0.4,3.8,0.6,5.7h-7.5v6.2
		L10.8,90L10.8,90z"/>
</g>
</svg>
